<svg width="330" height="377" viewBox="0 0 330 377" fill="none" xmlns="http://www.w3.org/2000/svg">
<path d="M164.945 376.194C74.0368 376.311 0.3856 302.228 0.269511 211.46L0.0416121 33.2685C0.00259868 2.76441 41.4756 -9.00086 53.756 11.3867L87.0571 66.6977C110.14 54.3209 136.499 47.2692 164.524 47.2334C255.37 47.1172 329.084 120.658 329.2 211.504C329.316 302.35 255.776 376.063 164.945 376.179L164.945 376.194ZM227.428 148.317L164.573 85.6075L101.601 148.741C64.22 186.265 67.3035 247.331 109.037 281.361C165.41 327.331 254.021 287.45 253.924 211.6C253.892 186.689 243.793 164.609 227.444 148.302L227.428 148.317Z" fill="#4C4DDC"/>
<path fill-rule="evenodd" clip-rule="evenodd" d="M205.331 180.035L179.048 158.36C170.194 151.059 157.727 151.075 148.892 158.399L122.664 180.141C117.939 184.058 115.262 189.992 115.27 196.179L115.313 230.033C115.327 241.026 123.793 250.443 134.839 250.429L144.588 250.416C149.973 250.409 154.332 246.039 154.325 240.654L154.305 224.8C154.297 218.621 158.933 214.123 164.041 214.116C169.149 214.11 173.796 218.596 173.804 224.775L173.825 240.629C173.832 246.014 178.202 250.373 183.587 250.366L193.336 250.354C204.382 250.34 212.823 240.901 212.809 229.908L212.766 196.054C212.758 189.867 210.067 183.94 205.331 180.035Z" fill="#4C4DDC"/>
</svg>
